<?xml version="1.0" standalone="no"?><!DOCTYPE svg PUBLIC "-//W3C//DTD SVG 1.1//EN" "http://www.w3.org/Graphics/SVG/1.1/DTD/svg11.dtd"><svg t="1558520287889" class="icon" style="" viewBox="0 0 1024 1024" version="1.1" xmlns="http://www.w3.org/2000/svg" p-id="13998" xmlns:xlink="http://www.w3.org/1999/xlink" width="200" height="200"><defs><style type="text/css"></style></defs><path d="M512.143119 847.518464c-73.65854 0-147.317079 0.286238-220.975619-0.095412-68.029195-0.349846-121.301239-54.098953-121.46026-122.573408-0.159021-64.117278 0.540671-128.202752 0.636084-192.320029 0.127217-76.298289-0.445259-152.596577 0.159021-228.894866 0.60428-76.870764 51.65003-127.344038 128.011927-127.407647 142.578253-0.127217 285.124701-0.127217 427.702953 0 76.45731 0.063608 127.185017 50.695903 127.439451 127.566668 0.477063 138.825356 0.731497 277.618909 0.731497 416.444265 0 76.012051-51.65003 127.407647-127.566668 127.503059-71.559462 0.095413-143.08712 0.031804-214.646582 0.031804-0.031804-0.063608-0.031804-0.159021-0.031804-0.254434z" fill="#123450" p-id="13999"></path><path d="M513.065441 195.277821c75.789421 0 151.547039-0.063608 227.33646 0.031804 21.690468 0.031804 22.358356 0.98593 17.333292 21.436035-6.933317 28.178526-13.834829 56.357052-21.117993 84.440165-7.728422 29.768736-6.138212 58.774172 7.664814 86.348417 5.311302 10.5908 2.957791 14.629934-7.855639 18.064789-50.82312 16.188341-101.582632 32.567506-152.024101 49.868994-20.768146 7.124142-25.157126 22.867224-13.803026 41.281859 9.541262 15.488648 21.658664 24.075783 41.409076 23.566916 46.084294-1.20856 92.232196-1.399385 138.284685 0.063608 21.563251 0.699693 32.185856-15.647669 32.567506-30.850079 0.477063-19.050719 0.413455-38.165046-0.031804-57.215766-0.222629-9.096003-3.880113-17.3969-8.873374-25.125322-22.421965-34.730192-29.132652-71.718483-17.269683-112.014411a951.963475 951.963475 0 0 0 19.082523-76.743548c2.735162-13.325962 8.61894-11.131472 16.061124-5.661148 28.273939 20.736342 42.045159 49.391931 45.066559 83.772277 0.349846 4.00733-1.335777 7.18775-4.102743 9.891108-3.0214 2.957791-5.59754 6.869708-9.191415 8.714352-41.186446 21.054384-30.595646 59.155822-30.341212 93.377147 0.095413 11.544927 11.322297 18.00118 19.686803 23.566916 18.541852 12.340032 27.383421 27.351617 24.552847 50.377861-2.099078 17.237879-0.572476 34.921017-0.349846 52.413331 0.095413 8.078268-2.480728 11.926577-11.290493 13.803025-46.911203 9.954716-93.85421 19.782216-140.28835 31.740597-31.199925 8.046464-58.106283-1.049539-85.426096-13.644004-20.132062-9.286828-40.804795-17.492313-61.350312-25.920428-22.167531-9.064199-43.508153-4.707022-64.467124 4.516198-18.382831 8.110072-37.43355 14.916172-55.084884 24.393825-32.122247 17.206075-64.498928 15.297823-98.338603 6.615275-40.327732-10.336367-81.068919-19.018915-121.746498-27.82868-7.855639-1.685623-10.81343-5.025064-10.749821-12.626269 0.159021-25.443364-0.795105-50.918533 0.38165-76.298289 0.667888-14.693543 14.916172-21.563251 24.743672-28.687393 13.484983-9.763891 18.510048-20.672733 16.506382-36.22499-0.254434-2.099078-0.349846-4.293568 0-6.360841 5.629344-33.80787-4.834239-59.728298-34.157716-79.383297-17.142467-11.513122-6.010995-29.673324-1.876448-43.41274 6.774296-22.549182 20.609125-41.377271 41.027425-54.862254 8.777961-5.788365 11.608535-3.275833 13.739416 5.692952 8.141877 34.380346 18.032984 68.410846 24.521043 103.109234 5.851974 31.136317-5.533932 59.696493-21.785881 85.744138-6.837904 10.972451-9.573066 21.785881-9.159611 34.380346 0.572476 16.951641-0.222629 33.903283 0.254433 50.854924 0.540671 19.845824 10.113737 29.323477 29.546107 29.387086 49.264714 0.159021 98.561232 0.159021 147.825947 0 17.651334-0.063608 37.8152-19.81402 38.832935-37.401746 0.954126-16.283753-6.20182-24.902693-25.602386-31.040904-48.342392-15.361431-96.525763-31.136317-145.027176-45.957077-10.5908-3.244029-12.912507-6.424449-7.982856-16.919837 14.788955-31.422555 14.757151-63.958257 5.59754-97.098239-6.869708-24.870889-12.499053-50.123428-18.796285-75.185142-5.056869-20.100258-4.770631-20.863559 15.552256-20.927167 76.83896-0.127217 153.67792-0.031804 230.516881-0.063608z" fill="#0C4275" p-id="14000"></path><path d="M802.801752 701.60077c-0.477063 7.919247-0.190825 15.965711-1.526602 23.725937-7.18775 41.886138-32.472094 65.707488-75.821226 67.329503-46.561357 1.749231-93.24993 0.445259-139.906699 0.763301-6.424449 0.031804-10.240954-2.19449-11.099668-8.428114-2.19449-16.124732-12.944312-20.386496-27.2244-20.322888-23.853154 0.095413-47.706308 0.159021-71.559462-0.031804-13.294158-0.095413-23.407895 4.866043-25.506972 18.573656-1.462993 9.700283-6.583471 10.240954-14.184676 10.20915-43.444545-0.190825-86.920893 0.318042-130.365438-0.222629-49.741777-0.636084-75.375967-23.884958-80.178401-73.404106-4.00733-41.154642-1.908252-82.563717-2.194491-123.845576 6.329037-4.961456 13.135137-2.671553 19.782216-1.049539 34.984626 8.523527 70.319098 15.393235 105.081095 24.839085 14.59813 3.975526 27.892288 2.766966 41.631704-3.180421 29.164456-12.594465 58.678759-24.362021 87.429761-37.783396 22.61279-10.5908 44.144237-11.513122 67.170482-1.144951 24.584651 11.099668 50.155232 20.004845 75.02612 30.40482 16.633599 6.965121 33.108178 8.873373 51.077554 4.802435 36.129577-8.205485 72.418176-15.584061 108.611361-23.535112 24.107588-5.279498 24.934497-4.866043 24.616455 20.354692-0.286238 30.62745 1.367581 61.318508-0.858713 91.945957z" fill="#FBDBCB" p-id="14001"></path><path d="M512.270336 825.0965c-73.65854 0-147.317079 0.031804-220.975619 0-59.569277-0.031804-102.791192-43.476349-102.8548-103.363668-0.031804-46.116098-0.222629-92.200391 0.286238-138.316489 0.063608-5.438519-5.374911-15.011585 4.99326-16.283753 12.276423-1.526602 10.527192 8.491723 10.558996 16.315557 0.127217 36.574836 0.127217 73.117868 0.572476 109.692705 0.190825 15.838494 1.781036 31.645184 5.406715 47.165636 9.191415 39.309998 32.853744 62.717893 72.100133 68.410846 53.176631 7.728422 106.830326 2.703357 160.261391 3.244029 12.181011 0.127217 20.79995-7.982856 24.171196-19.750412 2.035469-7.060534 5.756561-8.682548 12.499053-8.587135 22.262944 0.349846 44.525888 0.286238 66.757027 0.031804 6.742492-0.063608 10.304563 1.399385 11.862968 9.032394 2.735162 13.325962 13.166941 19.527782 25.761407 19.336957 49.201106-0.636084 98.561232 3.816505 147.603317-2.417119 57.947262-7.378576 89.051775-42.776656 89.942293-101.582632 0.60428-40.264124 0.445259-80.560052 0.636084-120.824176 0.031804-4.229959-0.063608-8.491723 0.413454-12.689878 0.572476-5.088673 3.975526-7.18775 8.905178-6.933317 5.21589 0.254434 5.438519 4.102742 5.502127 7.919247 0.095413 6.360841 0.063608 12.721682 0.063609 19.082523 0 41.854334 0.095413 83.740473-0.031804 125.594807-0.190825 61.731963-43.476349 104.890269-105.049291 104.922074-73.117868 0.031804-146.26754 0-219.385408 0z" fill="#64798B" p-id="14002"></path><path d="M802.801752 701.60077c-0.190825-32.313073-0.890518-64.626145-0.381651-96.907413 0.222629-13.516787-3.212225-15.743082-16.569991-12.562662-43.508153 10.368171-87.397956 19.146132-131.192347 28.242135-11.354101 2.353511-21.913097-2.512532-32.090443-6.360841-27.160791-10.272758-54.544212-20.291083-80.814486-32.567507-21.62686-10.113737-41.250054-8.650744-62.24083 0.985931-30.245799 13.898438-61.159487 26.238469-91.627915 39.659844-12.117402 5.311302-23.59872 6.297233-36.82927 3.021399-42.42681-10.463584-85.171662-19.559586-127.789297-29.19626-0.254434-1.558406-0.667888-3.116812-0.699693-4.675218-0.667888-18.478243-0.667888-18.414635 17.3969-14.502718 35.557102 7.696618 71.177812 14.947977 106.607697 23.21707 21.563251 5.025064 41.631705 2.289903 61.668354-6.456254 26.556511-11.608535 53.685499-21.881293 80.210206-33.553436 16.665404-7.314967 32.694723-6.8061 49.01028 0.095412 20.895363 8.809765 42.458614 16.315557 62.495264 26.715533 33.42622 17.333292 66.916048 18.764481 102.695779 8.428114 29.323477-8.491723 59.505668-13.962046 89.401621-20.259279 4.452589-0.954126 12.848899-5.915582 12.753487 4.83424-0.38165 40.582166 2.258099 81.259745-2.003665 121.84191z" fill="#EFC0AC" p-id="14003"></path><path d="M763.428145 437.05339c0.159021 16.856229-0.031804 33.712458 0.667889 50.536882 0.477063 11.862969-5.120477 16.02932-16.124732 15.870299-16.283753-0.222629-32.59931-0.063608-50.727708-0.063609 12.435444-18.00118 14.057459-35.652514 2.576141-53.494673 14.757151-12.085598 33.108178-14.82076 50.727707-19.273348 5.184085-1.272168 10.558996 0.349846 12.880703 6.424449zM322.367426 453.305339c-8.968786 17.01525-7.219555 33.299003 5.724757 50.091623H273.866012c-9.382241 0-13.198745-4.866043-12.976115-13.99385 0.445259-18.478243 0.60428-36.988291 0.890517-55.498338 3.7847-3.434854 8.39631-4.229959 13.071529-3.085008 13.580396 3.371246 27.00177 7.346771 40.136907 12.117402 4.38898 1.622014 8.39631 4.452589 7.378576 10.368171z" fill="#FADACA" p-id="14004"></path><path d="M835.464671 426.049135c-34.41215-22.517377-34.348542-73.499519 0-95.476224v95.476224z" fill="#627789" p-id="14005"></path><path d="M189.203218 426.144548v-94.68112c35.461689 21.62686 35.906948 69.237755 0 94.68112z" fill="#63788A" p-id="14006"></path><path d="M673.072398 494.110134c-12.880703 0.508867-23.058049-8.523527-22.262944-19.368761 0.826909-11.067863 6.456254-18.637264 18.82809-18.955306 11.226884-0.286238 21.117992 8.364506 20.4183 18.987111-0.699693 11.41771-7.283163 18.096593-16.983446 19.336956z" fill="#FAFBFC" p-id="14007"></path><path d="M355.348386 455.340808c9.700283 0.890518 17.174271 5.724757 17.555922 18.192006 0.38165 12.848899-6.488058 20.004845-18.60546 20.386495-11.481318 0.349846-18.510048-6.583471-19.495978-18.255614-0.98593-11.385906 7.442184-20.100258 20.545516-20.322887z" fill="#FDFEFE" p-id="14008"></path><path d="M633.15812 481.483865c2.894183 6.583471 5.82017 13.198745 8.682548 19.750411-31.040904 7.823835-44.84393 3.911917-56.706898-16.315557 11.036059-9.191415 25.061714-10.050129 38.101438-13.6122 9.127807-2.480728 8.332702 5.120477 9.922912 10.177346z" fill="#F6D6C7" p-id="14009"></path><path d="M436.67174 488.258161c-5.374911 12.085598-14.661739 16.538187-27.701463 15.361431-8.746156-0.795105-17.61953-0.159021-28.146722-0.159021 5.915582-10.622605 11.513122-20.068454 11.544927-31.327142 17.174271-1.240364 32.949157 1.367581 44.303258 16.124732z" fill="#F6D7C7" p-id="14010"></path><path d="M322.367426 453.305339c-18.128397-12.976116-39.182781-16.697208-60.587012-19.368761-1.462993-12.594465 4.293568-16.251949 15.774886-12.658074 18.859894 5.915582 37.656179 11.894773 58.83778 18.573656a2475.480324 2475.480324 0 0 0-14.025654 13.453179z" fill="#ECBEAA" p-id="14011"></path><path d="M763.428145 437.05339c-6.8061-4.357176-13.484983-3.244029-20.768146-0.699692-14.121067 4.961456-28.560176 9.096003-42.840264 13.580395-3.466658-2.862378-6.901513-5.692953-11.862969-9.763891 20.672733-6.710687 39.40541-13.166941 58.424325-18.796285 13.453179-3.975526 18.764481 2.385315 17.047054 15.679473z" fill="#ECBEAB" p-id="14012"></path><path d="M633.15812 481.483865c-2.639749-5.692953-5.59754-8.555331-13.00792-5.915582-11.354101 4.039134-23.312483 6.329037-35.01643 9.350436-5.756561-10.495388 2.607945-12.880703 9.350437-15.20241 12.944312-4.452589 26.143057-8.205485 40.168711-12.530857-0.477063 8.332702-0.98593 16.315557-1.494798 24.298413z" fill="#E9BCAA" p-id="14013"></path><path d="M436.67174 488.258161c-13.675808-8.428114-29.41889-11.067863-44.303258-16.124732-1.144951-4.452589-2.289903-8.905178-4.00733-15.552257 15.933907 5.120477 30.245799 9.382241 44.271454 14.375501 9.445849 3.40305 12.658074 9.191415 4.039134 17.301488z" fill="#EABCA9" p-id="14014"></path><path d="M513.224462 201.734075c18.541852 0 37.083703 0.095413 55.593751-0.031805 12.658074-0.095413 21.817685 5.470323 25.443364 17.460509a18035.528776 18035.528776 0 0 1 52.794981 177.467466c5.374911 18.478243-4.548001 30.595646-23.884958 30.881883-62.908718 0.98593-54.671429-2.480728-67.361307-50.187036-6.996925-26.238469-7.41038-26.556511-34.41215-25.984035-15.106998 0.318042-34.157717-6.615275-44.23965 3.498462-9.064199 9.064199-8.968786 27.351617-12.658074 41.631705-7.442184 28.687393-10.272758 30.977296-39.977886 31.136317-7.951051 0.031804-15.902103 0.159021-23.82135 0.063608-20.513712-0.222629-28.751002-10.749821-23.407895-30.691058 4.643414-17.301488 9.891108-34.475759 15.138802-51.618225 12.308227-40.391341 25.125322-80.623661 37.020095-121.110414 4.802435-16.347362 14.566326-23.280678 31.358946-22.676398 17.428705 0.667888 34.921017 0.159021 52.413331 0.159021z" fill="#123450" p-id="14015"></path><path d="M481.038606 710.855794c-5.438519-11.41771-3.466658-17.555921 10.845234-16.760816 12.562661 0.667888 25.220735 0.954126 37.719788-0.063609 13.198745-1.081343 18.669069 3.0214 14.884368 16.442775-21.117992 8.237289-42.267789 7.696618-63.44939 0.38165z" fill="#183752" p-id="14016"></path><path d="M481.038606 710.855794c21.149797-0.127217 42.299593-0.286238 63.44939-0.413455-0.031804 0.540671 0.095413 1.113147-0.127217 1.558406-9.159611 21.054384-27.637854 8.300898-41.695313 11.03606-9.445849 1.876448-19.559586 0.922322-21.62686-12.181011z" fill="#EFC0AC" p-id="14017"></path><path d="M513.383483 220.816598c16.951641 0 33.935087 0.795105 50.82312-0.318042 9.668478-0.636084 12.721682 3.721092 15.043389 11.544926 16.283753 54.512408 32.535702 109.05662 49.391931 163.378203 3.721092 12.02199 0.508867 14.59813-11.290493 13.83483-35.207255-2.289903-35.23906-1.940057-44.080628-36.22499-10.558996-40.900208-10.558996-40.900208-53.303849-40.900208-10.5908 0-21.181601-0.031804-31.772401 0-21.02258 0.095413-26.62012 4.357176-32.21766 25.029909-3.593875 13.198745-7.251359 26.429295-10.240954 39.787061-1.971861 8.841569-5.565736 13.962046-15.743082 13.23055-7.855639-0.572476-15.933907 0-23.757741 1.113147-13.294158 1.844644-13.707613-4.134547-10.527192-14.470914 16.919837-54.862254 33.712458-109.788117 49.996211-164.841196 2.544336-8.587135 6.074603-11.79936 15.234214-11.385906 17.460509 0.795105 34.952822 0.222629 52.445135 0.22263z" fill="#FFFFFF" p-id="14018"></path><path d="M512.333944 309.868373h-3.18042c-40.454949 0-50.695903-16.474578-33.171787-53.208436 0.222629-0.477063 0.413455-0.98593 0.731497-1.399385 14.661739-21.086188 36.479424-10.463584 55.307513-11.894773 12.467249-0.922322 18.160201 8.841569 20.768146 20.03665 1.303972 5.629344 2.671553 11.258689 3.784701 16.919837 3.40305 17.142467-5.788365 28.719197-23.630525 29.482498-6.869708 0.318042-13.739417 0.063608-20.609125 0.063609z" fill="#123450" p-id="14019"></path><path d="M512.970028 290.913066c-2.639749 0-5.438519 0.508867-7.919247-0.095412-6.170016-1.526602-16.315557 5.152281-17.365096-7.314967-1.113147-13.580396 5.82017-21.181601 18.414635-21.499643 4.229959-0.095413 8.587135 0.60428 12.689878-0.127217 16.442774-2.989595 18.541852 8.587135 19.082523 19.750411 0.731497 15.20241-11.79936 7.251359-18.573656 9.191416-1.971861 0.572476-4.229959 0.095413-6.329037 0.095412z" fill="#0C4275" p-id="14020"></path></svg>