<?xml version="1.0" standalone="no"?><!DOCTYPE svg PUBLIC "-//W3C//DTD SVG 1.1//EN" "http://www.w3.org/Graphics/SVG/1.1/DTD/svg11.dtd"><svg t="1558488983975" class="icon" style="" viewBox="0 0 1067 1024" version="1.1" xmlns="http://www.w3.org/2000/svg" p-id="779" xmlns:xlink="http://www.w3.org/1999/xlink" width="208.3984375" height="200"><defs><style type="text/css"></style></defs><path d="M530.819459 388.912432c-207.567568 0-428.142703-52.03027-428.142702-148.48s220.575135-148.549189 428.142702-148.549189 428.073514 52.099459 428.073514 148.549189-220.575135 148.48-428.073514 148.48z m0-257.66054c-240.847568 0-388.774054 63.584865-388.774054 109.18054s147.926486 109.111351 388.774054 109.111352 388.704865-63.584865 388.704865-109.111352S771.667027 131.459459 530.819459 131.459459z" p-id="780" fill="#13227a"></path><path d="M494.564324 493.734054c-12.454054 0-24.631351 0-36.393513-0.691892-124.540541-4.981622-226.387027-30.443243-302.564325-75.554594a19.718919 19.718919 0 0 1 20.064865-33.902703c70.503784 41.513514 166.054054 65.383784 284.021622 70.157838A925.059459 925.059459 0 0 0 714.793514 428.972973c52.03027-13.837838 113.677838-39.299459 116.376216-67.044324a19.64973 19.64973 0 1 1 39.161081 3.874594C861.820541 452.566486 657.297297 493.734054 494.564324 493.734054z" p-id="781" fill="#13227a"></path><path d="M455.749189 591.775135c-8.025946 0-15.844324 0-23.385946-0.484324C351.411892 588.108108 285.059459 571.433514 235.243243 541.958919a19.718919 19.718919 0 1 1 20.064865-33.902703c44.142703 26.153514 104.268108 40.890811 178.646487 43.935135 129.798919 5.258378 228.324324-31.481081 230.607567-52.514594a19.64973 19.64973 0 1 1 39.161081 3.805405c-6.088649 62.477838-143.844324 88.492973-247.974054 88.492973z" p-id="782" fill="#13227a"></path><path d="M394.378378 687.187027q-12.246486 0-24.492973-0.415135c-136.856216-4.843243-181.690811-44.972973-195.251891-77.907027a19.64973 19.64973 0 1 1 36.393513-14.944865c12.523243 30.374054 72.441081 50.36973 160.311351 53.414054a567.351351 567.351351 0 0 0 162.387027-15.982703c42.551351-11.762162 62.962162-27.675676 63.930811-36.947027a19.64973 19.64973 0 1 1 39.161081 3.805406c-2.975135 30.650811-35.00973 55.351351-92.575135 71.057297A585.824865 585.824865 0 0 1 394.378378 687.187027zM420.324324 781.215135h-12.73081c-45.941622-1.591351-103.783784-11.554595-119.766487-49.885405a19.718919 19.718919 0 0 1 36.393514-15.014054c4.704865 11.416216 32.726486 23.731892 84.756756 25.6 69.189189 2.421622 116.03027-13.837838 121.634595-23.593514a19.64973 19.64973 0 0 1 39.091892 4.497297c-4.566486 46.495135-93.405405 58.395676-149.37946 58.395676zM490.067027 858.983784c-33.695135 0-76.108108-6.157838-89.945946-35.217298a19.718919 19.718919 0 0 1 35.84-16.328648c1.868108 4.012973 17.643243 12.315676 54.382703 12.177297 42.205405 0 72.025946-10.101622 78.668108-16.328649a19.64973 19.64973 0 0 1 38.884324 5.12c-2.352432 39.714595-74.931892 50.508108-117.621621 50.577298z m78.806487-52.92973zM449.72973 936.337297c-37.915676 0-61.578378-9.686486-70.296216-28.782702a19.718919 19.718919 0 0 1 35.563243-16.882163c2.006486 1.868108 11.900541 6.296216 34.594594 6.296217H449.72973c27.675676 0 46.91027-6.019459 52.791351-9.755676a19.718919 19.718919 0 0 1 38.4 7.264865c-1.868108 30.789189-50.231351 41.513514-91.122162 41.859459z m-34.594595-45.803243zM804.601081 286.166486a19.027027 19.027027 0 0 1-8.579459-2.006486c-66.006486-31.827027-163.909189-50.162162-268.661622-50.162162-111.878919 0-199.818378 15.775135-261.465946 46.841081a19.64973 19.64973 0 1 1-17.712432-35.148108c68.151351-34.594595 159.481081-51.061622 279.178378-51.061622 110.702703 0 214.486486 19.718919 285.820541 54.105946a19.718919 19.718919 0 0 1-8.57946 37.431351z" p-id="783" fill="#13227a"></path></svg>